<svg xmlns="http://www.w3.org/2000/svg" viewBox="0 0 68 68" x="0px" y="0px"><path fill="#ffffff" d="M210,473 C197.297451,473 187,462.702549 187,450 C187,437.297451 197.297451,427 210,427 C222.702549,427 233,437.297451 233,450 C233,462.702549 222.702549,473 210,473 Z M210,469 C220.49341,469 229,460.49341 229,450 C229,439.50659 220.49341,431 210,431 C199.50659,431 191,439.50659 191,450 C191,460.49341 199.50659,469 210,469 Z M212,441 C212,442.104569 211.104569,443 210,443 C208.895431,443 208,442.104569 208,441 L208,437 C208,435.895431 208.895431,435 210,435 C211.104569,435 212,435.895431 212,437 L212,441 Z M210,420 C208.895431,420 208,419.104569 208,418 C208,416.895431 208.895431,416 210,416 C211.104569,416 212,416.895431 212,418 C212,419.104569 211.104569,420 210,420 Z M231.213203,428.786797 C230.432155,428.005748 230.432155,426.739418 231.213203,425.958369 C231.994252,425.177321 233.260582,425.177321 234.041631,425.958369 C234.822679,426.739418 234.822679,428.005748 234.041631,428.786797 C233.260582,429.567845 231.994252,429.567845 231.213203,428.786797 Z M240,450 C240,448.895431 240.895431,448 242,448 C243.104569,448 244,448.895431 244,450 C244,451.104569 243.104569,452 242,452 C240.895431,452 240,451.104569 240,450 Z M231.213203,471.213203 C231.994252,470.432155 233.260582,470.432155 234.041631,471.213203 C234.822679,471.994252 234.822679,473.260582 234.041631,474.041631 C233.260582,474.822679 231.994252,474.822679 231.213203,474.041631 C230.432155,473.260582 230.432155,471.994252 231.213203,471.213203 Z M210,480 C211.104569,480 212,480.895431 212,482 C212,483.104569 211.104569,484 210,484 C208.895431,484 208,483.104569 208,482 C208,480.895431 208.895431,480 210,480 Z M188.786797,471.213203 C189.567845,471.994252 189.567845,473.260582 188.786797,474.041631 C188.005748,474.822679 186.739418,474.822679 185.958369,474.041631 C185.177321,473.260582 185.177321,471.994252 185.958369,471.213203 C186.739418,470.432155 188.005748,470.432155 188.786797,471.213203 Z M180,450 C180,451.104569 179.104569,452 178,452 C176.895431,452 176,451.104569 176,450 C176,448.895431 176.895431,448 178,448 C179.104569,448 180,448.895431 180,450 Z M188.786797,428.786797 C188.005748,429.567845 186.739418,429.567845 185.958369,428.786797 C185.177321,428.005748 185.177321,426.739418 185.958369,425.958369 C186.739418,425.177321 188.005748,425.177321 188.786797,425.958369 C189.567845,426.739418 189.567845,428.005748 188.786797,428.786797 Z" transform="translate(-176 -416)"/></svg>